<?xml version="1.0" encoding="UTF-8" standalone="no"?>
<svg
   width="1000"
   height="1000"
   version="1.1"
   id="svg34"
   xmlns="http://www.w3.org/2000/svg"
   xmlns:svg="http://www.w3.org/2000/svg">
  <defs
     id="defs34" />
  <g
     id="damage-8"
     style="display:inline">
    <path
       fill="#ffc6ab"
       transform="matrix(9.45,0,0,9.44295,744.025,166.489)"
       d="M 8.74892,3.79828e-6 C 8.74892,4.70986 4.83189,8.52796 -1.18931e-6,8.52796 -4.83189,8.52796 -8.74892,4.70986 -8.74892,1e-6 -8.74892,-4.70986 -4.8319,-8.52796 -1.18931e-6,-8.52796 4.83189,-8.52796 8.74892,-4.70986 8.74892,1e-6 Z"
       id="path1"
       style="display:inline" />
    <path
       fill="none"
       stroke="#000000"
       stroke-width="1"
       stroke-linecap="round"
       stroke-miterlimit="4"
       transform="matrix(9.45,0,0,9.44295,744.025,166.489)"
       d="M 8.74892,3.79828e-6 C 8.74892,4.70986 4.83189,8.52796 -1.18931e-6,8.52796 -4.83189,8.52796 -8.74892,4.70986 -8.74892,1e-6 -8.74892,-4.70986 -4.8319,-8.52796 -1.18931e-6,-8.52796 4.83189,-8.52796 8.74892,-4.70986 8.74892,1e-6 Z"
       id="path2"
       style="display:inline" />
    <path
       fill="#f48f76"
       transform="matrix(9.45,0,0,9.44295,772.811,136.222)"
       d="m -3.05686,0.03129 1.59342,-0.37195 c 0,0 0.561471,1.55098 0.561471,1.55098 -0.514951,0.19702 -1.034021,0.46081 -1.597761,0.81194 0,0 1.744791,-0.40776 1.744791,-0.40776 0,0 0.4752,1.31235 0.4752,1.31235 C -0.32094,2.4224 -0.373039,1.9667 -0.44087,1.54179 c 0,0 1.52126,-0.35574 1.52126,-0.35574 0,0 0.4539,1.25275 0.4539,1.25275 -0.0394,-0.4799 -0.0882,-0.91592 -0.15107,-1.32321 0,0 1.67369,-0.39051 1.67369,-0.39051 C 2.41376,0.70158 1.84602,0.70348 1.31914,0.74048 1.20905,0.15406 1.05974,-0.37388 0.84771,-0.8807 c 0,0 1.65312,-0.38596 1.65312,-0.38596 -0.67574,-0.0244 -1.26911,-0.0214 -1.818259,0.0212 -0.26988,-0.55369 -0.6216705,-1.09542 -1.090651,-1.68139 0,0 0.62545,1.72788 0.62545,1.72788 -0.49117,0.0632 -0.95146,0.16683 -1.4091,0.3214 -0.2617,-0.51221 -0.59652,-1.01775 -1.03148,-1.56121 0,0 0.62117,1.71449 0.62117,1.71449 -0.46845,0.19018 -0.94315,0.43697 -1.45487,0.75562 z m 2.065131,-0.48255 1.36473,-0.31881 c 0,0 0.5594,1.54585 0.5594,1.54585 C 0.42195,0.83198 -0.0548095,0.92703 -0.52444,1.07701 -0.63591,0.52835 -0.78526,0.02991 -0.991769,-0.45125 Z"
       id="path3"
       style="display:inline" />
  </g>
  <path
     fill="#8eb5ff"
     d="m 985.7205,594.26183 c 0,248.67065 -237.1468,325.60425 -501.37088,325.60425 -264.22465,0 -466.87612,-88.11783 -466.87612,-336.78819 0,-248.67093 182.44453,-434.47797 479.1353,-434.47797 296.6908,0 489.1117,196.99127 489.1117,445.66191 z"
     id="path4"
     style="display:inline;stroke-width:9.44647" />
  <path
     fill="#fffef6"
     d="m 211.13479,256.86841 c -6.88244,2.14828 -132.653435,41.21943 -154.16069,234.20452 0.43092,64.9014 -1.52334,198.68109 117.19229,316.44884 12.04402,11.60538 33.06177,29.20893 37.36341,62.73424 117.05242,41.88137 134.43192,52.80214 286.02125,52.80214 151.58934,0 168.96695,-10.92077 286.01843,-52.80214 4.3007,-33.52531 25.32411,-51.12886 37.36719,-62.73424 C 939.65324,689.75402 937.69425,555.97433 938.12423,491.07293 916.61792,298.08784 790.84693,259.01669 783.96449,256.86841 623.57814,195.94345 554.06262,271.28874 497.55197,270.71744 441.26402,270.14709 393.04823,187.76585 211.13479,256.86841 Z"
     id="path5"
     style="stroke-width:9.44647" />
  <path
     fill="none"
     stroke="#000000"
     stroke-width="18.2899"
     stroke-linecap="round"
     stroke-linejoin="round"
     d="m 985.7205,594.26183 c 0,248.67065 -237.1468,325.60425 -501.37088,325.60425 -264.22465,0 -466.87612,-88.11783 -466.87612,-336.78819 0,-248.67093 182.44453,-434.47797 479.1353,-434.47797 296.6908,0 489.1117,196.99127 489.1117,445.66191 z"
     id="path6" />
  <g
     id="damage-7"
     style="display:inline">
    <path
       fill="#ffffff"
       transform="matrix(9.45,0,0,9.44295,517.764,349.15)"
       d="M -48.4025,4.18013 C 7.3517,-7.01342 36.0126,7.4436 48.4025,17.0137 46.0555,4.73741 40.5932,-4.4464 28.8377,-12.4165 c -21.61243,-4.5972 -36.98011,-2.6002 -46.443,-0.6897 -2.4992,-0.4512 -7.8566,-1.5439 -12.8869,-1.3278 -6.9767,4.3735 -11.2806,7.7845 -17.9103,18.61413 z"
       id="path7" />
    <path
       fill="none"
       stroke="#000000"
       stroke-width="1"
       stroke-linecap="round"
       stroke-linejoin="round"
       transform="matrix(9.45,0,0,9.44295,517.764,349.15)"
       d="M -48.4025,4.18013 C 7.3517,-7.01342 36.0126,7.4436 48.4025,17.0137 46.0555,4.73741 40.5932,-4.4464 28.8377,-12.4165 c -21.61243,-4.5972 -36.98011,-2.6002 -46.443,-0.6897 -2.4992,-0.4512 -7.8566,-1.5439 -12.8869,-1.3278 -6.9767,4.3735 -11.2806,7.7845 -17.9103,18.61413 z"
       id="path8" />
    <path
       fill="none"
       stroke="#000000"
       stroke-width="1"
       stroke-linecap="round"
       stroke-linejoin="round"
       transform="matrix(9.45,0,0,9.44295,533.9,331.614)"
       d="m -24.0054,-4.36994 c -5.6614,-0.74395 -12.8171,-0.53022 -20.5209,2.30797 M 35.2944,-3.66568 C 29.7708,-5.55784 15.1631,-8.98075 3.85864,-5.78426 M -19.2157,-11.2136 c 21.17079,4.35353 44.06,10.46661 63.742,22.4272"
       id="path9" />
  </g>
  <path
     fill="#8eb5ff"
     d="m 524.27691,161.45464 c -18.09439,-26.82322 -45.58095,-48.72001 -91.06852,-64.57453 -70.69649,-14.984356 -53.48804,38.74471 -7.15847,61.9915 -102.1063,-61.769968 -170.09433,-2.5987 -71.58186,19.27321 -53.33485,-7.98213 -91.40229,62.84075 -17.49762,45.10274"
     id="path10"
     style="display:inline;stroke-width:9.44647" />
  <path
     fill="none"
     stroke="#000000"
     stroke-width="18.8929"
     stroke-linecap="round"
     stroke-linejoin="round"
     d="m 524.27691,161.45464 c -18.09439,-26.82322 -45.58095,-48.72001 -91.06852,-64.57453 -70.69649,-14.984356 -53.48804,38.74471 -7.15847,61.9915 -102.1063,-61.769968 -170.09433,-2.5987 -71.58186,19.27321 -53.33485,-7.98213 -91.40229,62.84075 -17.49762,45.10274"
     id="path11"
     style="display:inline" />
  <g
     id="damage-5"
     style="display:inline">
    <path
       fill="#7f83c4"
       transform="matrix(9.45,0,0,9.44295,254.657,544.048)"
       d="m -7.45231,-4.90187 c -1.39641,1.1233 -3.16749,6.65511 -0.56926,9.54952 2.68973,3.02343 7.26376,4.91154 12.65518,0.57203 C 9.51362,2.08087 10.6198,-0.78483 7.93513,-5.38038 5.95524,-8.50651 -1.86058,-9.55919 -7.45231,-4.90187 Z"
       id="path12" />
  </g>
  <path
     d="m 327.21028,503.09791 c 0,41.94951 -34.08171,77.08276 -72.64692,77.08276 -38.56521,0 -64.56764,-31.56608 -64.56764,-73.51549 0,-41.9496 35.39686,-77.83385 73.96213,-77.83385 38.56525,0 63.25243,32.31699 63.25243,74.26658 z"
     id="path15"
     style="stroke-width:9.44647" />
  <path
     fill="#ffffff"
     d="m 263.06554,445.39729 c -16.17489,0 -30.88268,18.0823 -30.88278,35.75903 0,17.67669 10.49347,28.25383 26.66839,28.25383 16.17498,0 29.89827,-17.07725 29.17355,-34.73915 -0.68333,-16.65245 -8.78425,-29.27371 -24.95916,-29.27371 z m -19.45555,93.87718 c -6.2801,0 -14.54941,4.95339 -14.45491,12.99473 0,8.80262 6.48071,11.34551 11.86183,11.34551 5.93497,0 12.74083,-4.61788 12.74083,-11.4576 2e-5,-6.76852 -2.23945,-12.85431 -10.14775,-12.88264 z m 25.26192,4.30391 c -4.01091,0 -7.58783,2.92014 -7.57416,7.65153 0.0132,4.73139 2.74437,7.49534 7.50584,7.49534 4.76138,0 7.34832,-2.90494 7.37393,-7.52471 0.0255,-4.61978 -3.29465,-7.62216 -7.30561,-7.62216 z"
     id="path16"
     style="stroke-width:9.44647" />
  <path
     fill="none"
     stroke="#000000"
     stroke-width="14.1697"
     stroke-linecap="round"
     stroke-linejoin="round"
     d="m 309.62671,393.44249 c 0,0 -11.35937,14.96071 -25.22762,17.51352 -12.10432,1.5195 -25.52769,-3.14007 -39.82901,-5.97456 -14.30144,-2.83439 -29.48079,-3.84366 -29.48079,-3.84366"
     id="path17" />
  <g
     id="damage-3"
     style="display:inline">
    <path
       fill="#ce5b4d"
       transform="matrix(9.45,-6.00317e-7,6.00765e-7,9.44295,718.632,498.733)"
       d="M 3.33359,12.0005 C -2.53425,3.41909 -3.33357,-0.676803 0.278678,-12.0005 -0.210343,-0.785024 0.170597,0.684716 3.33359,12.0005 Z"
       id="path18" />
  </g>
  <g
     id="damage-6"
     style="display:inline">
    <path
       fill="none"
       stroke="#000000"
       stroke-width="0.5"
       stroke-linecap="round"
       stroke-miterlimit="4"
       transform="matrix(9.45,-6.00317e-7,6.00765e-7,9.44295,742.23,612.344)"
       d="m -0.02012,0.48251 0.3855,2.29613 m 3.0772,-4.30189 1.88474,1.78671 m -9.20594,-0.52375 -1.01373,2.46866 m -1.39656,-2.30191 c 4.3809,3.27825 9.86519,2.01368 12.57782,-3.09117"
       id="path19" />
  </g>
  <path
     d="m 649.47081,503.09787 c 0,41.94954 34.08161,77.0828 72.6469,77.0828 38.56523,0 64.56757,-31.56608 64.56767,-73.51552 -9e-5,-41.94956 -35.39695,-77.83391 -73.96215,-77.83391 -38.56523,-10e-6 -63.25242,32.31707 -63.25242,74.26663 z"
     id="path22"
     style="stroke-width:9.44647" />
  <path
     fill="#ffffff"
     d="m 713.61554,445.39719 c 16.17482,0 30.8827,18.08241 30.88279,35.75904 0,17.67674 -10.49347,28.25388 -26.66841,28.25388 -16.17496,0 -29.89825,-17.07721 -29.17353,-34.73911 0.68334,-16.65246 8.78425,-29.27381 24.95915,-29.27381 z m 19.45557,93.87719 c 6.27999,0 14.5494,4.95349 14.4549,12.99482 0,8.80262 -6.48071,11.34551 -11.86183,11.34551 -5.93497,0 -12.74085,-4.61788 -12.74084,-11.4577 -2e-5,-6.76842 2.23944,-12.85431 10.14777,-12.88263 z m -25.26193,4.304 c 4.01089,0 7.58781,2.92004 7.57414,7.65143 -0.0132,4.73139 -2.74437,7.49534 -7.50582,7.49534 -4.76148,0 -7.34832,-2.90484 -7.37393,-7.52461 -0.0255,-4.61978 3.29465,-7.62216 7.30561,-7.62216 z"
     id="path23"
     style="stroke-width:9.44647" />
  <path
     fill="none"
     stroke="#000000"
     stroke-width="14.1697"
     stroke-linecap="round"
     stroke-linejoin="round"
     d="m 666.46719,393.44249 c 0,0 11.35947,14.96071 25.22772,17.51352 12.10432,1.5195 25.52764,-3.14007 39.82901,-5.97456 14.30135,-2.83439 29.48079,-3.84366 29.48079,-3.84366"
     id="path24"
     style="display:inline" />
  <path
     fill="#8b582b"
     d="m 414.55325,567.45348 c 12.60233,14.86127 46.68121,34.46904 79.80767,34.46866 33.12645,-4.7e-4 68.49997,-19.60805 81.10183,-34.46866 0,0 -49.96943,10.41383 -80.45473,10.55925 -30.48534,0.14542 -80.13489,-10.4736 -80.45477,-10.55925 z"
     id="path27"
     style="display:inline;stroke-width:9.44647" />
  <path
     fill="none"
     stroke="#000000"
     stroke-width="5.20807"
     stroke-linecap="round"
     stroke-linejoin="round"
     d="m 414.55325,567.45348 c 12.60233,14.86127 46.68121,34.46904 79.80767,34.46866 33.12645,-4.7e-4 68.49997,-19.60805 81.10183,-34.46866 0,0 -49.96943,10.41383 -80.45473,10.55925 -30.48534,0.14542 -80.13489,-10.4736 -80.45477,-10.55925 z"
     id="path28"
     style="display:inline" />
  <path
     fill="#ea974d"
     d="m 392.75175,559.11353 c 0,0 67.81934,20.00472 102.69497,19.99886 35.11626,-0.006 103.39666,-20.17128 103.39666,-20.17128 0,0 -12.89688,-10.5284 -27.19369,-22.78353 -14.29691,-12.25511 -29.99395,-26.23695 -43.24598,-33.2773 -9.89709,-5.25805 -20.869,-9.98613 -32.07758,-10.08181 -11.26963,-0.0965 -22.42745,4.3789 -32.42113,9.58487 -13.45282,7.00788 -29.32825,21.22386 -43.75336,33.65441 -14.4251,12.43056 -27.39989,23.07578 -27.39989,23.07578 z"
     id="path29"
     style="display:inline;stroke-width:9.44647" />
  <path
     fill="none"
     stroke="#000000"
     stroke-width="9.44647"
     stroke-linecap="round"
     stroke-linejoin="round"
     d="m 392.75175,559.11353 c 0,0 67.81934,20.00472 102.69497,19.99886 35.11626,-0.006 103.39666,-20.17128 103.39666,-20.17128 0,0 -12.89688,-10.5284 -27.19369,-22.78353 -14.29691,-12.25511 -29.99395,-26.23695 -43.24598,-33.2773 -9.89709,-5.25805 -20.869,-9.98613 -32.07758,-10.08181 -11.26963,-0.0965 -22.42745,4.3789 -32.42113,9.58487 -13.45282,7.00788 -29.32825,21.22386 -43.75336,33.65441 -14.4251,12.43056 -27.39989,23.07578 -27.39989,23.07578 z"
     id="path30"
     style="display:inline" />
  <path
     d="m 534.01607,509.80466 c -4.2043,9.62227 -5.38489,20.13539 -5.38489,20.13539 0,0 8.78463,-11.35213 10.86155,-17.54689 z m -92.82215,40.18853 c 0,0 -8.61689,13.78605 -9.73265,17.32319 0,0 8.61443,2.52296 8.61443,2.52296 0.91769,-9.75702 0.83992,-13.88793 0.83992,-13.88793 0,0 -0.88121,1.71795 -2.05112,4.04045 1.42269,-5.30949 2.32942,-9.99867 2.32942,-9.99867 z"
     id="damage-4"
     style="display:inline;stroke-width:9.44647" />
  <g
     id="damage-1"
     style="display:inline">
    <path
       transform="matrix(9.45,0,0,9.44295,495,468.89)"
       d="m -4.59897,-36.1123 0.38964,0.7199 c 0,0 -0.67437,0.4759 -0.67437,0.4759 -0.16307,-0.2227 -0.35912,-0.4382 -0.60307,-0.664 0,0 0.42685,0.788 0.42685,0.788 0,0 -0.57051,0.4026 -0.57051,0.4026 0.23803,-0.0865 0.45136,-0.1712 0.64751,-0.2599 0,0 0.37207,0.6878 0.37207,0.6878 0,0 -0.54467,0.3839 -0.54467,0.3839 0.22633,-0.0823 0.43035,-0.1635 0.61856,-0.2475 0,0 0.4098,0.7565 0.4098,0.7565 -0.0736,-0.3134 -0.14932,-0.5877 -0.23668,-0.8371 0.26846,-0.1305 0.50323,-0.2727 0.71985,-0.4418 0,0 0.40463,0.7472 0.40463,0.7472 -0.07733,-0.3294 -0.15703,-0.6155 -0.25011,-0.8749 0.23168,-0.2033 0.44718,-0.4445 0.66817,-0.7483 0,0 -0.75189,0.5302 -0.75189,0.5302 -0.09529,-0.2287 -0.20616,-0.4372 -0.34106,-0.6377 0.21276,-0.1939 0.41256,-0.4226 0.61753,-0.7043 0,0 -0.74621,0.5261 -0.74621,0.5261 -0.15368,-0.2009 -0.33477,-0.3977 -0.55604,-0.6026 z m 0.50488,0.9328 0.33435,0.6175 c 0,0 -0.67231,0.4739 -0.67231,0.4739 -0.09468,-0.2393 -0.20341,-0.4569 -0.33797,-0.6641 0.25018,-0.1262 0.47089,-0.2641 0.67593,-0.4273 z m -11.52281,0.9684 c -0.0525,0.1809 -0.0916,0.3385 -0.1163,0.4842 -0.1444,-0.019 -0.2799,-0.0225 -0.4206,-0.006 0,0 0.0145,-0.3591 0.0145,-0.3591 -0.0393,0.1353 -0.0712,0.257 -0.0951,0.371 -0.1326,0.0224 -0.2724,0.0618 -0.43,0.1209 0,0 0.4093,-0.0145 0.4093,-0.0145 -0.0254,0.1477 -0.0355,0.2832 -0.0294,0.4181 -0.1294,0.0227 -0.2658,0.0614 -0.4191,0.1188 0,0 0.4273,-0.0155 0.4273,-0.0155 0.0131,0.1216 0.0392,0.2455 0.0806,0.3799 0,0 0.0155,-0.383 0.0155,-0.383 0,0 0.4398,-0.016 0.4398,-0.016 0.015,0.0897 0.0375,0.1819 0.0677,0.2796 0,0 0.0114,-0.2827 0.0114,-0.2827 0,0 0.2795,-0.01 0.2795,-0.01 -0.0982,-0.0257 -0.1895,-0.0467 -0.2764,-0.0625 0,0 0.0181,-0.449 0.0181,-0.449 0,0 0.2976,-0.0103 0.2976,-0.0103 -0.1053,-0.0276 -0.202,-0.0495 -0.2945,-0.0656 z m -0.1302,0.5788 c -0.0193,0.1492 -0.0218,0.288 -0.0057,0.4299 -0.1458,-0.0206 -0.2819,-0.025 -0.4227,-0.01 0,0 0.017,-0.4056 0.017,-0.4056 z m -14.0126,9.8469 c -0.2332,0.3049 -0.4269,0.5811 -0.5881,0.8496 -0.3389,-0.0579 -0.6998,-0.0743 -1.1188,-0.0506 0,0 0.987,0.2811 0.987,0.2811 -0.1327,0.2481 -0.2367,0.4954 -0.3173,0.7581 -0.3176,-0.048 -0.6567,-0.0597 -1.0454,-0.0377 0,0 0.9798,0.279 0.9798,0.279 -0.0678,0.2798 -0.1128,0.5803 -0.1369,0.9225 0,0 0.3555,-0.8605 0.3555,-0.8605 0,0 0.8852,0.2522 0.8852,0.2522 -0.0802,0.3036 -0.1315,0.6311 -0.1581,1.0082 0,0 0.3891,-0.9425 0.3891,-0.9425 0,0 0.7493,0.2134 0.7493,0.2134 -0.2416,-0.1475 -0.4647,-0.274 -0.679,-0.3829 0,0 0.3395,-0.8222 0.3395,-0.8222 0,0 0.7152,0.2036 0.7152,0.2036 -0.2297,-0.1402 -0.4428,-0.2621 -0.6475,-0.3674 0,0 0.3731,-0.9039 0.3731,-0.9039 -0.2218,0.2901 -0.4074,0.5537 -0.5638,0.8098 -0.3012,-0.1426 -0.589,-0.2471 -0.8878,-0.3162 z m -0.4749,1.1498 c 0,0 0.8821,0.2512 0.8821,0.2512 -0.1423,0.2549 -0.2555,0.5071 -0.3421,0.7741 -0.2847,-0.1296 -0.559,-0.2246 -0.8444,-0.2879 z m 65.7815,5.9516 0.1772,0.7994 c 0,0 -0.7792,0.2724 -0.7792,0.2724 -0.0957,-0.2588 -0.2249,-0.5201 -0.3974,-0.8041 0,0 0.1943,0.8754 0.1943,0.8754 0,0 -0.6594,0.2304 -0.6594,0.2304 0.2527,-0.0178 0.481,-0.0413 0.694,-0.0729 0,0 0.1695,0.7633 0.1695,0.7633 0,0 -0.6294,0.2201 -0.6294,0.2201 0.2404,-0.017 0.4588,-0.039 0.663,-0.0682 0,0 0.186,0.8398 0.186,0.8398 0.0153,-0.3217 0.0176,-0.6058 0.002,-0.8697 0.2941,-0.0518 0.5591,-0.1236 0.8139,-0.2269 0,0 0.184,0.8294 0.184,0.8294 0.016,-0.338 0.0178,-0.635 -5e-4,-0.91 0.2786,-0.1319 0.5516,-0.305 0.8475,-0.5364 0,0 -0.8682,0.3033 -0.8682,0.3033 -0.0289,-0.2461 -0.0782,-0.477 -0.153,-0.7069 0.2578,-0.1281 0.5127,-0.2928 0.7871,-0.5075 0,0 -0.8615,0.3013 -0.8615,0.3013 -0.0926,-0.2355 -0.2134,-0.4744 -0.37,-0.7322 z m 0.23,1.0361 0.1519,0.6847 c 0,0 -0.7767,0.2713 -0.7767,0.2713 -0.0253,-0.2557 -0.0702,-0.4948 -0.1426,-0.7307 0.2752,-0.0527 0.5254,-0.1247 0.7674,-0.2253 z m -76.4047,10.3942 c 0.0087,0.32191 0.0275,0.60569 0.0626,0.86765 -0.2897,0.0736 -0.5482,0.16528 -0.7948,0.28732 0,0 -0.245,-0.8139 -0.245,-0.8139 0.0091,0.33846 0.0295,0.63492 0.0682,0.90795 -0.2678,0.15224 -0.5279,0.34475 -0.8056,0.59738 0,0 0.8439,-0.36742 0.8439,-0.36742 0.047,0.24328 0.1131,0.46987 0.2046,0.6935 -0.2476,0.14692 -0.4895,0.33033 -0.7472,0.56483 0,0 0.8366,-0.36432 0.8366,-0.36432 0.1099,0.22795 0.2479,0.45727 0.4232,0.7028 0,0 -0.2361,-0.78394 -0.2361,-0.78394 0,0 0.757,-0.32969 0.757,-0.32969 0.1147,0.25108 0.2631,0.50199 0.4563,0.77256 0,0 -0.2589,-0.85886 -0.2589,-0.85886 0,0 0.6403,-0.27854 0.6403,-0.27854 -0.2507,0.0366 -0.4767,0.0768 -0.6868,0.12403 0,0 -0.2253,-0.74879 -0.2253,-0.74879 0,0 0.6108,-0.26614 0.6108,-0.26614 -0.2384,0.0348 -0.4543,0.073 -0.6557,0.11731 z m 0.092,1.05989 c 0.0443,0.25322 0.1077,0.48792 0.1974,0.71778 -0.2706,0.073 -0.5149,0.1638 -0.7488,0.28216 0,0 -0.2026,-0.6718 -0.2026,-0.6718 z m 80.9682,6.11849 c 0,0 -0.0718,0.91002 -0.0718,0.91002 -0.2528,-0.0102 -0.52,0.004 -0.8191,0.0429 0,0 0.8031,0.1602 0.8031,0.1602 0,0 -0.0651,0.82269 -0.0651,0.82269 -0.2756,-0.0169 -0.5669,-0.004 -0.8966,0.0398 0,0 0.8795,0.17518 0.8795,0.17518 0,0 -0.0553,0.69608 -0.0553,0.69608 0.0855,-0.23823 0.1564,-0.45655 0.2135,-0.66404 0,0 0.7673,0.15296 0.7673,0.15296 0,0 -0.0527,0.66404 -0.0527,0.66404 0.0815,-0.22694 0.1495,-0.43536 0.2052,-0.63407 0,0 0.8434,0.16847 0.8434,0.16847 -0.2881,-0.14368 -0.5472,-0.26024 -0.7948,-0.35243 0.0712,-0.28989 0.1116,-0.56139 0.1199,-0.83613 0,0 0.8335,0.1664 0.8335,0.1664 -0.3028,-0.15102 -0.574,-0.27274 -0.833,-0.3669 -0.008,-0.30811 -0.0564,-0.62816 -0.1489,-0.99219 0,0 -0.0723,0.91726 -0.0723,0.91726 C 41.0514,2.92212 40.82,2.87406 40.5797,2.84971 40.5665,2.56215 40.5181,2.26235 40.4324,1.9247 Z m 0.1493,1.16065 0.6884,0.13746 c 0,0 -0.0651,0.81959 -0.0651,0.81959 -0.2443,-0.08 -0.4811,-0.1349 -0.7261,-0.16382 0.0628,-0.2732 0.0973,-0.53114 0.1029,-0.79323 z M -34.1202,24.6566 c -0.1018,0.2183 -0.1888,0.4198 -0.2625,0.6124 0,0 -0.8242,-0.245 -0.8242,-0.245 0.2736,0.1696 0.521,0.3092 0.7591,0.4238 -0.0977,0.2824 -0.1634,0.5491 -0.1969,0.8222 0,0 -0.8144,-0.2424 -0.8144,-0.2424 0.2877,0.1782 0.5465,0.3242 0.7958,0.4418 -0.0199,0.3075 -0.0017,0.6307 0.0569,1.0015 0,0 0.1565,-0.9069 0.1565,-0.9069 0.2291,0.0943 0.4549,0.1635 0.692,0.2098 -0.0133,0.2876 0.0072,0.5907 0.0615,0.9348 0,0 0.1555,-0.8997 0.1555,-0.8997 0.2508,0.0334 0.5178,0.0442 0.8191,0.0325 0,0 -0.7844,-0.233 -0.7844,-0.233 0,0 0.1405,-0.8134 0.1405,-0.8134 0.2727,0.0421 0.564,0.0557 0.8961,0.0429 0,0 -0.8594,-0.2553 -0.8594,-0.2553 0,0 0.1189,-0.6883 0.1189,-0.6883 -0.1071,0.2295 -0.198,0.4404 -0.2739,0.6418 0,0 -0.7498,-0.2227 -0.7498,-0.2227 z m -0.1509,0.8723 c 0.2361,0.1022 0.4665,0.1786 0.708,0.23 -0.0876,0.2661 -0.1461,0.52 -0.1757,0.7803 0,0 -0.6723,-0.2 -0.6723,-0.2 z m 60.7674,7.63 -0.1643,0.8817 c 0,0 -0.6966,-0.0461 -0.6966,-0.0461 0.2394,0.0825 0.4588,0.1503 0.6671,0.2047 0,0 -0.1431,0.7689 -0.1431,0.7689 0,0 -0.6651,-0.0439 -0.6651,-0.0439 0.2278,0.0785 0.4373,0.1438 0.6366,0.1969 0,0 -0.1576,0.8455 -0.1576,0.8455 0.14,-0.29 0.2537,-0.5506 0.3426,-0.7995 0.2911,0.0675 0.5627,0.1054 0.8377,0.1101 0,0 -0.1555,0.8351 -0.1555,0.8351 0.147,-0.3047 0.2647,-0.5775 0.3555,-0.8377 0.3081,-0.0123 0.6272,-0.0646 0.9901,-0.1617 0,0 -0.9177,-0.061 -0.9177,-0.061 0.0697,-0.2377 0.1146,-0.4694 0.1359,-0.7101 0.2875,-0.0169 0.5867,-0.0685 0.9234,-0.1586 0,0 -0.911,-0.0605 -0.911,-0.0605 0.007,-0.2529 -0.0106,-0.5201 -0.0537,-0.8186 0,0 -0.1499,0.8051 -0.1499,0.8051 0,0 -0.8237,-0.0542 -0.8237,-0.0542 0.0133,-0.2758 -0.003,-0.567 -0.0506,-0.8961 z m 0.0362,1.0956 c 0.2737,0.0592 0.5319,0.0904 0.7937,0.0925 0,0 -0.1281,0.6899 -0.1281,0.6899 0,0 -0.8201,-0.0543 -0.8201,-0.0543 0.0768,-0.2454 0.1288,-0.4827 0.1545,-0.7282 z"
       id="path32"
       style="display:inline" />
  </g>
  <g
     id="damage-2"
     style="display:inline">
    <path
       fill="#ffffff"
       transform="matrix(9.45,0,0,9.44295,485.885,631.854)"
       d="m 3.50457,-25.6053 c 0,0 -4.047545,4.9893 -4.047545,4.9893 -0.310474,0.3827 -0.868535,0.4408 -1.251255,0.1304 0,0 -0.35309,-0.2865 -0.35309,-0.2865 -0.38271,-0.3104 -0.44087,-0.8685 -0.13039,-1.2512 0,0 4.04755,-4.9893 4.04755,-4.9893 0.31047,-0.3827 0.86853,-0.4409 1.25125,-0.1304 0,0 0.35309,0.2865 0.35309,0.2865 0.38272,0.3104 0.44087,0.8685 0.13039,1.2512 z m -4.6822,-1.1 c -0.38272,-0.3105 -0.94071,-0.2524 -1.2512,0.1303 0,0 -0.2863,0.353 -0.2863,0.353 -0.31048,0.3827 -0.25252,0.9409 0.13019,1.2514 0,0 1.62729,1.3201 1.62729,1.3201 l 1.407315,-1.7347 z m 3.36204,2.7274 -1.407313,1.7348 c 0,0 1.627293,1.3201 1.627293,1.3201 0.38271,0.3105 0.9409,0.2521 1.25138,-0.1306 0,0 0.28632,-0.3529 0.28632,-0.3529 0.31047,-0.3828 0.25232,-0.9408 -0.13039,-1.2513 z m -43.05811,7.3861 c 0,0 4.1145,6.62685 4.1145,6.62685 0.3156,0.50833 0.1604,1.17164 -0.3479,1.48725 0,0 -0.469,0.29118 -0.469,0.29118 -0.5083,0.31561 -1.1717,0.16046 -1.4873,-0.34788 0,0 -4.1144,-6.6269 -4.1144,-6.6269 -0.3156,-0.5083 -0.1604,-1.1716 0.3479,-1.4872 0,0 0.469,-0.2912 0.469,-0.2912 0.5083,-0.3156 1.1716,-0.1605 1.4872,0.3479 z m -3.1234,4.934 c -0.5084,0.3156 -0.6635,0.9788 -0.3479,1.4872 0,0 0.291,0.46873 0.291,0.46873 0.3157,0.50833 0.9791,0.66379 1.4874,0.34818 0,0 2.1614,-1.34201 2.1614,-1.34201 l -1.4305,-2.3041 z m 4.4655,-2.7725 1.4306,2.3041 c 0,0 2.1614,-1.342 2.1614,-1.342 0.5083,-0.3156 0.6632,-0.9791 0.3476,-1.4875 0,0 -0.291,-0.4687 -0.291,-0.4687 -0.3156,-0.5084 -0.9789,-0.6635 -1.4872,-0.3479 z m 32.74551,29.122 c 0,0 -6.68111,11.572 -6.68111,11.572 -0.5125,0.8877 -1.6397,1.1897 -2.5274,0.6773 0,0 -0.819,-0.4729 -0.819,-0.4729 -0.8877,-0.5125 -1.1897,-1.6397 -0.6772,-2.5273 0,0 6.6812,-11.5721 6.6812,-11.5721 0.5125,-0.8877 1.63967,-1.1897 2.52734,-0.6773 0,0 0.81896,0.4729 0.81896,0.4729 0.88766,0.5124 1.1897,1.6397 0.67721,2.5274 z m -9.97701,-0.7276 c -0.8877,-0.5125 -2.0148,-0.2105 -2.5273,0.6772 0,0 -0.4726,0.8186 -0.4726,0.8186 -0.5125,0.8876 -0.2108,2.0153 0.6769,2.5278 0,0 3.7743,2.1791 3.7743,2.1791 l 2.323,-4.0236 z m 7.79788,4.5021 -2.32298,4.0236 c 0,0 3.77432,2.1791 3.77432,2.1791 0.88767,0.5125 2.01507,0.2099 2.52757,-0.6777 0,0 0.47261,-0.8186 0.47261,-0.8186 0.51248,-0.8877 0.21047,-2.0148 -0.67718,-2.5273 z M 40.2017,5.36275 c 0,0 0.0394,9.54495 0.0394,9.54495 0.003,0.7321 -0.584,1.324 -1.3162,1.3271 0,0 -0.6755,0.003 -0.6755,0.003 -0.7321,0.003 -1.324,-0.584 -1.327,-1.3162 0,0 -0.0394,-9.54492 -0.0394,-9.54492 -0.003,-0.73217 0.584,-1.32404 1.3161,-1.32706 0,0 0.6755,-0.003 0.6755,-0.003 0.7322,-0.003 1.3241,0.58398 1.3271,1.31615 z m -6.419,3.13987 c -0.7321,0.003 -1.3191,0.59483 -1.3161,1.32701 0,0 0.003,0.67517 0.003,0.67517 0.003,0.7322 0.5949,1.3196 1.327,1.3165 0,0 3.1132,-0.0128 3.1132,-0.0128 L 36.8961,8.48981 Z m 6.4319,-0.0266 0.0137,3.31868 c 0,0 3.1132,-0.0129 3.1132,-0.0129 0.7322,-0.003 1.3191,-0.5952 1.3161,-1.3274 0,0 -0.003,-0.67518 -0.003,-0.67518 -0.003,-0.73217 -0.5949,-1.31911 -1.327,-1.3161 z"
       id="path33" />
    <path
       fill="none"
       stroke="#000000"
       stroke-width="0.4"
       stroke-linecap="round"
       stroke-linejoin="round"
       transform="matrix(9.45,0,0,9.44295,485.885,631.854)"
       d="m 3.50457,-25.6053 c 0,0 -4.047545,4.9893 -4.047545,4.9893 -0.310474,0.3827 -0.868535,0.4408 -1.251255,0.1304 0,0 -0.35309,-0.2865 -0.35309,-0.2865 -0.38271,-0.3104 -0.44087,-0.8685 -0.13039,-1.2512 0,0 4.04755,-4.9893 4.04755,-4.9893 0.31047,-0.3827 0.86853,-0.4409 1.25125,-0.1304 0,0 0.35309,0.2865 0.35309,0.2865 0.38272,0.3104 0.44087,0.8685 0.13039,1.2512 z m -4.6822,-1.1 c -0.38272,-0.3105 -0.94071,-0.2524 -1.2512,0.1303 0,0 -0.2863,0.353 -0.2863,0.353 -0.31048,0.3827 -0.25252,0.9409 0.13019,1.2514 0,0 1.62729,1.3201 1.62729,1.3201 l 1.407315,-1.7347 z m 3.36204,2.7274 -1.407313,1.7348 c 0,0 1.627293,1.3201 1.627293,1.3201 0.38271,0.3105 0.9409,0.2521 1.25138,-0.1306 0,0 0.28632,-0.3529 0.28632,-0.3529 0.31047,-0.3828 0.25232,-0.9408 -0.13039,-1.2513 z m -43.05811,7.3861 c 0,0 4.1145,6.62685 4.1145,6.62685 0.3156,0.50833 0.1604,1.17164 -0.3479,1.48725 0,0 -0.469,0.29118 -0.469,0.29118 -0.5083,0.31561 -1.1717,0.16046 -1.4873,-0.34788 0,0 -4.1144,-6.6269 -4.1144,-6.6269 -0.3156,-0.5083 -0.1604,-1.1716 0.3479,-1.4872 0,0 0.469,-0.2912 0.469,-0.2912 0.5083,-0.3156 1.1716,-0.1605 1.4872,0.3479 z m -3.1234,4.934 c -0.5084,0.3156 -0.6635,0.9788 -0.3479,1.4872 0,0 0.291,0.46873 0.291,0.46873 0.3157,0.50833 0.9791,0.66379 1.4874,0.34818 0,0 2.1614,-1.34201 2.1614,-1.34201 l -1.4305,-2.3041 z m 4.4655,-2.7725 1.4306,2.3041 c 0,0 2.1614,-1.342 2.1614,-1.342 0.5083,-0.3156 0.6632,-0.9791 0.3476,-1.4875 0,0 -0.291,-0.4687 -0.291,-0.4687 -0.3156,-0.5084 -0.9789,-0.6635 -1.4872,-0.3479 z m 32.74551,29.122 c 0,0 -6.68111,11.572 -6.68111,11.572 -0.5125,0.8877 -1.6397,1.1897 -2.5274,0.6773 0,0 -0.819,-0.4729 -0.819,-0.4729 -0.8877,-0.5125 -1.1897,-1.6397 -0.6772,-2.5273 0,0 6.6812,-11.5721 6.6812,-11.5721 0.5125,-0.8877 1.63967,-1.1897 2.52734,-0.6773 0,0 0.81896,0.4729 0.81896,0.4729 0.88766,0.5124 1.1897,1.6397 0.67721,2.5274 z m -9.97701,-0.7276 c -0.8877,-0.5125 -2.0148,-0.2105 -2.5273,0.6772 0,0 -0.4726,0.8186 -0.4726,0.8186 -0.5125,0.8876 -0.2108,2.0153 0.6769,2.5278 0,0 3.7743,2.1791 3.7743,2.1791 l 2.323,-4.0236 z m 7.79788,4.5021 -2.32298,4.0236 c 0,0 3.77432,2.1791 3.77432,2.1791 0.88767,0.5125 2.01507,0.2099 2.52757,-0.6777 0,0 0.47261,-0.8186 0.47261,-0.8186 0.51248,-0.8877 0.21047,-2.0148 -0.67718,-2.5273 z M 40.2017,5.36275 c 0,0 0.0394,9.54495 0.0394,9.54495 0.003,0.7321 -0.584,1.324 -1.3162,1.3271 0,0 -0.6755,0.003 -0.6755,0.003 -0.7321,0.003 -1.324,-0.584 -1.327,-1.3162 0,0 -0.0394,-9.54492 -0.0394,-9.54492 -0.003,-0.73217 0.584,-1.32404 1.3161,-1.32706 0,0 0.6755,-0.003 0.6755,-0.003 0.7322,-0.003 1.3241,0.58398 1.3271,1.31615 z m -6.419,3.13987 c -0.7321,0.003 -1.3191,0.59483 -1.3161,1.32701 0,0 0.003,0.67517 0.003,0.67517 0.003,0.7322 0.5949,1.3196 1.327,1.3165 0,0 3.1132,-0.0128 3.1132,-0.0128 L 36.8961,8.48981 Z m 6.4319,-0.0266 0.0137,3.31868 c 0,0 3.1132,-0.0129 3.1132,-0.0129 0.7322,-0.003 1.3191,-0.5952 1.3161,-1.3274 0,0 -0.003,-0.67518 -0.003,-0.67518 -0.003,-0.73217 -0.5949,-1.31911 -1.327,-1.3161 z"
       id="path34"
       style="display:inline" />
  </g>
</svg>
